<?xml version="1.0" encoding="UTF-8"?><svg id="a" xmlns="http://www.w3.org/2000/svg" viewBox="0 0 1000 1000"><path d="M581.5,591h-29v74c0,5.52-4.48,10-10,10s-10-4.48-10-10v-74h-23v105c0,5.52-4.48,10-10,10s-10-4.48-10-10v-105h-23v76c0,5.52-4.48,10-10,10s-10-4.48-10-10v-76h-28c-10.49,0-19,8.51-19,19v112c0,10.49,8.51,19,19,19h163c10.49,0,19-8.51,19-19v-112c0-10.49-8.51-19-19-19Z" style="fill:#f1901b; stroke-width:0px;"/><path d="M879.98,562.74h0c-6.91,0-13.21,2.58-18,6.83h-220.33c-12.25-18.16-32.49-30.51-55.64-31.94v-.14h-33.5v35.5h29c19.17,0,34.98,14.65,36.82,33.35h35.59c-.24-4.8-.96-9.47-2.09-13.98h49.4c-9.81,7.42-16.16,19.18-16.16,32.39,0,.79.03,1.58.07,2.36h-31.13v-14.18h-35.5v50.43h35.5v-13.46h39.82c7.44,9.4,18.94,15.45,31.83,15.45.74,0,1.48-.02,2.22-.06h38l49.81,49.81c.63.63,1.31,1.15,2.03,1.6,3.48,2.55,7.77,4.08,12.42,4.08,11.63,0,21.05-9.42,21.05-21.05s-9.42-21.05-21.05-21.05c-5.2,0-9.95,1.89-13.62,5.01l-18.4-18.4h70.47c6.29,0,11.4-5.1,11.4-11.4s-5.1-11.4-11.4-11.4h-106.42c2.62-5.36,4.09-11.39,4.09-17.75,0-5.16-.98-10.09-2.74-14.63h98.37c4.8,4.3,11.14,6.91,18.09,6.91h0c14.99,0,27.15-12.15,27.15-27.15h0c0-14.99-12.15-27.15-27.15-27.15ZM725.66,635.35c-5.85,0-10.6-4.75-10.6-10.6s4.75-10.6,10.6-10.6,10.6,4.75,10.6,10.6-4.75,10.6-10.6,10.6Z" style="fill:#2d3070; stroke-width:0px;"/><path d="M774.51,740.33h0c-4.06,0-7.94.79-11.49,2.22l-55.82-55.82c-2.24-2.24-5.17-3.35-8.1-3.34-.01,0-.03,0-.04,0h-45.06v-13.45h-35.5v50.05h35.5v-13.81h40.42l52.07,52.07c-1.81,3.93-2.83,8.3-2.83,12.91h0c0,17.04,13.81,30.85,30.85,30.85h0c17.04,0,30.85-13.81,30.85-30.85h0c0-17.04-13.81-30.85-30.85-30.85Z" style="fill:#4d52bd; stroke-width:0px;"/><path d="M714.51,797.21h0c-2.79,0-5.46.47-7.96,1.31l-53.75-53.75c-.61-.61-1.28-1.13-1.98-1.57,1.63-5.31,2.67-10.87,3.03-16.61h-35.63c-2.27,18.25-17.86,32.42-36.71,32.42h-163c-17.8,0-32.71-12.64-36.22-29.42h-35.89c.66,6.28,2.14,12.32,4.3,18.03l-56.39,56.39c-2.2-.64-4.52-.99-6.93-.99h0c-13.71,0-24.83,11.12-24.83,24.83s11.12,24.83,24.83,24.83h0c13.71,0,24.83-11.12,24.83-24.83,0-2.86-.49-5.6-1.37-8.15l51.7-51.7c6.25,7.59,14,13.89,22.81,18.44l-51.93,51.93c-.17.17-.32.35-.48.53-5.44,4.83-8.88,11.88-8.88,19.74v1.52c0,14.57,11.81,26.39,26.39,26.39h1.52c14.57,0,26.39-11.81,26.39-26.39v-1.52c0-8.97-4.48-16.89-11.32-21.66l41.44-41.44c.49-.49.92-1.03,1.31-1.58,2.86.34,5.76.54,8.72.54h13.81v36.32l-26.81,26.81c-.37.37-.7.76-1,1.17-4.77,4.77-7.72,11.37-7.72,18.65v1.52c0,14.57,11.81,26.39,26.39,26.39h1.52c14.57,0,26.39-11.81,26.39-26.39v-1.52c0-9.02-4.53-16.97-11.43-21.73l11.59-11.59c2.12-1.87,3.54-4.51,3.81-7.48,0-.08,0-.16.01-.23.02-.27.04-.54.04-.82v-.05s0,0,0,0v-41.04h14.9v108.62c0,5.52,4.48,10,10,10s10-4.48,10-10v-108.62h20v108.62c0,5.52,4.48,10,10,10s10-4.48,10-10v-108.62h16.31v82.44c0,.06,0,.11,0,.17,0,.11,0,.22,0,.34v1.52c0,14.57,11.81,26.39,26.39,26.39h1.52c14.57,0,26.39-11.81,26.39-26.39v-1.52c0-14.57-11.81-26.39-26.39-26.39h-1.52c-1.22,0-2.42.09-3.6.25v-56.81h12.4c4.29,0,8.49-.39,12.58-1.11v17.39s0,.06,0,.09c-.03,2.95,1.08,5.91,3.33,8.16l29.88,29.88c-.93,2.7-1.45,5.6-1.45,8.63v1.52c0,14.57,11.81,26.39,26.39,26.39h1.52c14.57,0,26.39-11.81,26.39-26.39v-1.52c0-14.57-11.81-26.39-26.39-26.39h-1.52c-3.13,0-6.14.55-8.92,1.55l-26.45-26.45v-21c9.21-5.17,17.19-12.29,23.36-20.81l50.49,50.49c-.67,2.26-1.04,4.64-1.04,7.12h0c0,13.71,11.12,24.83,24.83,24.83h0c13.71,0,24.83-11.12,24.83-24.83h0c0-13.71-11.12-24.83-24.83-24.83Z" style="fill:#676eff; stroke-width:0px;"/><path d="M381.5,722v-51.18h-35.5v14.41h-16.46c-.39,0-.79.02-1.18.06-.1.01-.2.03-.31.04-.27.03-.53.07-.79.12-.15.03-.3.07-.45.11-.21.05-.42.1-.63.16-.16.05-.31.11-.46.16-.2.07-.4.14-.59.22-.15.06-.29.13-.43.2-.19.09-.39.18-.58.28-.14.07-.27.16-.41.24-.18.11-.37.21-.54.33-.15.1-.3.22-.45.33-.15.11-.3.21-.44.33-.28.23-.54.47-.8.72-.01.01-.02.02-.03.03l-5.77,5.77h-126.85c-3.72-5.93-10.3-9.89-17.82-9.89-11.63,0-21.05,9.42-21.05,21.05h0c0,11.63,9.42,21.05,21.05,21.05,7.33,0,13.77-3.75,17.54-9.42h104.34l-41.46,41.46c-5.33-9.25-15.3-15.48-26.74-15.48h0c-17.04,0-30.85,13.81-30.85,30.85h0c0,17.04,13.81,30.85,30.85,30.85h0c7.11,0,13.66-2.41,18.88-6.46.65-.42,1.27-.92,1.84-1.49l.86-.86c.16-.15.31-.31.47-.47l87.51-87.51h11.78v13.98c0,.34.02.67.03,1h35.5c0-.33-.03-.66-.03-1Z" style="fill:#4d52bd; stroke-width:0px;"/><path d="M413,537.5v.21c-22.74,1.71-42.58,13.97-54.65,31.87h-220.33c-4.79-4.25-11.09-6.83-18-6.83h0c-14.99,0-27.15,12.15-27.15,27.15h0c0,14.99,12.15,27.15,27.15,27.15h0c6.95,0,13.29-2.62,18.09-6.91h98.37c-1.76,4.54-2.74,9.47-2.74,14.63,0,6.36,1.47,12.38,4.09,17.75h-106.42c-6.29,0-11.4,5.1-11.4,11.4s5.1,11.4,11.4,11.4h140.71c.73.04,1.47.06,2.22.06,12.89,0,24.39-6.05,31.83-15.45h39.82v14.33h35.5v-51.31h-35.5v14.18h-31.13c.05-.78.07-1.57.07-2.36,0-13.22-6.35-24.97-16.16-32.39h49.4c-1.13,4.51-1.85,9.18-2.09,13.98h35.59c1.84-18.69,17.65-33.35,36.82-33.35h28v-35.5h-33.5ZM274.34,635.35c-5.85,0-10.6-4.75-10.6-10.6s4.75-10.6,10.6-10.6,10.6,4.75,10.6,10.6-4.75,10.6-10.6,10.6Z" style="fill:#2d3070; stroke-width:0px;"/><polygon points="509.5 512 509.5 537.5 509.5 563 509.5 573 532.5 573 532.5 563 532.5 537.5 532.5 512 509.5 512" style="fill:#f1901b; stroke-width:0px;"/><polygon points="466.5 512 466.5 537.5 466.5 563 466.5 573 489.5 573 489.5 563 489.5 537.5 489.5 512 466.5 512" style="fill:#f1901b; stroke-width:0px;"/><path id="b" d="M812.87,537.81c-.01-20.56-.05-63.3-.08-94.73v-38.98l-23.85,5.39c-.42-5.87-5.82-81.65-6.78-98.08-.1-1.8-.95-3.21-3.42-3.25-5.3-.09-11.32,0-16.68.1-1.6.03-3.27,1.13-3.41,3.7-.95,17.44-4.55,98.08-4.88,105.49l-16.93,3.83c-.6-8.99-9.63-144.39-9.99-151.52-.19-3.67-2.27-4.9-6.24-4.9-4.52,0-11.04.05-15.44.15-2.58.06-4.31,2.22-4.38,4.28-.79,22.13-4.99,153.84-5.1,161.29l-51.09,11.54v101.81h168.2v-2.07s.05,0,.08,0c.1-1.44,0-3.01,0-4.03ZM692.5,522h-16v-24h16v24ZM692.5,476h-16v-24h16v24ZM731.5,522h-16v-24h16v24ZM731.5,476h-16v-24h16v24ZM770.5,522h-16v-24h16v24ZM770.5,476h-16v-24h16v24Z" style="fill:#1b2040; stroke-width:0px;"/><path id="c" d="M190.8,307.83v239.95h33.7v-44.95h32.5v44.95h89.49v-179.95l-155.69-60ZM246.5,462h-23v-23h23v23ZM246.5,418h-23v-23h23v23ZM246.5,374h-23v-23h23v23ZM308.5,462h-23v-23h23v23ZM308.5,418h-23v-23h23v23Z" style="fill:#1b2040; stroke-width:0px;"/><g id="d"><path d="M667.67,241.91c-.1.78-.81,1.35-1.59,1.26-2.93-.34-10.12-.48-15.94,5.02-6.35,6-6.09,14.02-5.78,16.76.09.77-.43,1.48-1.19,1.6-.12.02-.26.03-.39.03-.22,0-.44-.03-.65-.09-.63-.18-1.02-.81-.97-1.46.19-2.63.14-10.38-6.02-16.39-5.86-5.72-13.13-5.86-15.73-5.71-.68.04-1.31-.39-1.48-1.05-.05-.18-.07-.38-.07-.6,0-.14.01-.28.04-.41.14-.75.86-1.24,1.61-1.14,2.74.35,10.75.73,16.85-5.53,5.82-5.97,5.54-13.53,5.23-16.21-.09-.77.42-1.48,1.19-1.6.12-.02.25-.03.39-.03.12,0,.23.01.35.03.78.12,1.28.9,1.13,1.68-.53,2.74-1.36,10.58,4.49,16.78,4.31,4.57,10.69,6.58,16.84,5.42.96-.18,1.82.62,1.7,1.59,0,.02,0,.04,0,.06Z" style="fill:#f1901b; stroke-width:0px;"/><path d="M366.45,238.98c-.12.9-.93,1.55-1.83,1.45-3.38-.39-11.67-.55-18.37,5.79-7.32,6.92-7.02,16.16-6.66,19.32.1.88-.49,1.7-1.37,1.84-.14.02-.29.04-.45.03-.25,0-.51-.04-.75-.11-.72-.21-1.18-.93-1.12-1.68.21-3.04.16-11.96-6.94-18.9-6.75-6.6-15.14-6.76-18.13-6.58-.78.05-1.51-.45-1.7-1.21-.05-.21-.09-.44-.08-.69,0-.16.02-.32.04-.48.16-.86.99-1.43,1.86-1.32,3.15.4,12.39.84,19.42-6.37,6.71-6.89,6.39-15.6,6.02-18.68-.11-.89.49-1.71,1.37-1.85.14-.02.29-.03.45-.03.14,0,.27.01.4.03.9.14,1.48,1.04,1.31,1.94-.61,3.16-1.57,12.2,5.18,19.34,4.97,5.27,12.32,7.59,19.42,6.24,1.11-.21,2.09.71,1.96,1.83,0,.02,0,.04,0,.06Z" style="fill:#f1901b; stroke-width:0px;"/><path d="M287.96,293.82c-.08.6-.62,1.04-1.22.97-2.26-.26-7.78-.37-12.25,3.86-4.88,4.62-4.68,10.78-4.44,12.89.07.59-.33,1.14-.91,1.23-.1.02-.2.02-.3.02-.17,0-.34-.03-.5-.07-.48-.14-.78-.62-.75-1.12.14-2.03.11-7.98-4.63-12.61-4.5-4.4-10.1-4.51-12.1-4.39-.52.03-1.01-.3-1.14-.8-.04-.14-.06-.29-.06-.46,0-.11.01-.21.03-.32.1-.58.66-.95,1.24-.88,2.1.27,8.27.56,12.96-4.25,4.48-4.59,4.26-10.4,4.02-12.46-.07-.59.33-1.14.91-1.23.09-.01.19-.02.3-.02.09,0,.18,0,.27.02.6.09.99.7.87,1.29-.41,2.11-1.05,8.14,3.45,12.9,3.32,3.51,8.22,5.06,12.95,4.17.74-.14,1.4.48,1.3,1.22,0,.01,0,.03,0,.04Z" style="fill:#f1901b; stroke-width:0px;"/></g><g id="e"><path d="M509.5,457v9c0,5.52-4.48,10-10,10s-10-4.48-10-10v-9h-23v31h66v-31h-23Z" style="fill:#4a73f3; stroke-width:0px;"/><path d="M427.02,324.91c-18.44,22.53-32.5,63.37-32.51,106.78-.01,16.55,1.92,33.51,6.13,49.97,3.87-34.42,17.98-60.05,48.87-70.78-9.57-26.25-17.47-55.22-22.49-85.97Z" style="fill:#4a73f3; stroke-width:0px;"/><path d="M598.35,481.39c4.24-16.42,6.14-33.33,6.14-49.87.02-43.38-14.18-84.15-32.68-106.55-5.6,33.1-13.91,62.22-22.32,85.92,30.82,10.71,45.02,36.21,48.86,70.51Z" style="fill:#4a73f3; stroke-width:0px;"/><path d="M552.76,173h-6.76c-2.49,0-4.5-2.01-4.5-4.5s2.01-4.5,4.5-4.5h3.29c-8.84-21.7-20.94-42.79-37.01-62.64l-.52-.65c-3.89-4.76-8-9.46-12.35-14.08-4.06,4.35-7.9,8.8-11.56,13.32-16.36,20.21-28.68,41.81-37.65,64.05h2.81c2.49,0,4.5,2.01,4.5,4.5s-2.01,4.5-4.5,4.5h-6.24c-31.64,87.62-13.49,183.72,13.51,245h-8.76v30h38v-46.33c0-5.52,4.48-10,10-10s10,4.48,10,10v46.33h38v-30h-8.42c26.87-64.82,44.93-159.02,13.68-245Z" style="fill:#4a73f3; stroke-width:0px;"/><g id="f"><polygon points="505.96 321.39 505.96 333.14 483.64 333.14 483.64 230.52 489.51 230.52 489.51 227 483.64 227 480.11 227 480.11 230.52 480.11 333.14 480.11 336.67 483.64 336.67 505.96 336.67 509.49 336.67 509.49 333.14 509.49 321.39 505.96 321.39" style="fill:#fff; stroke-width:0px;"/><polygon points="489.51 211.33 489.51 227 505.96 227 509.49 227 509.49 230.52 509.49 321.39 518.89 321.39 518.89 211.33 489.51 211.33" style="fill:#fff; stroke-width:0px;"/><rect x="489.51" y="230.52" width="16.45" height="90.87" style="fill:#fff; stroke-width:0px;"/></g></g></svg>